<svg width="6" height="10" viewBox="0 0 6 10" fill="none" xmlns="http://www.w3.org/2000/svg">
<path fill-rule="evenodd" clip-rule="evenodd" d="M0 2.86274C0 1.65111 0 1.04529 0.239594 0.764766C0.447486 0.521356 0.759341 0.392181 1.07846 0.417296C1.44624 0.446241 1.87462 0.874618 2.73137 1.73137L4.86863 3.86863C5.26465 4.26465 5.46265 4.46265 5.53684 4.69098C5.6021 4.89183 5.6021 5.10817 5.53684 5.30902C5.46265 5.53735 5.26465 5.73535 4.86863 6.13137L2.73137 8.26863C1.87462 9.12538 1.44624 9.55376 1.07846 9.5827C0.759341 9.60782 0.447486 9.47864 0.239594 9.23523C0 8.95471 0 8.34889 0 7.13726V2.86274Z" fill="white"/>
</svg>
