<svg width="120" height="25" viewBox="0 0 120 25" fill="none" xmlns="http://www.w3.org/2000/svg">
<path d="M5.536 18.912H17.376L16.832 15.296H6.08L5.536 18.912ZM11.392 8.864L14.752 16.64L14.688 17.792L17.568 24H22.752L11.392 0.287998L0.032 24H5.184L8.128 17.6L8.032 16.576L11.392 8.864ZM28.461 18.24V9.28H24.173V18.688C24.173 20.4373 24.5997 21.8133 25.453 22.816C26.3277 23.8187 27.6397 24.32 29.389 24.32C30.4343 24.32 31.3197 24.1067 32.045 23.68C32.7703 23.232 33.3677 22.592 33.837 21.76V24H37.965V9.28H33.837V18.24C33.837 18.8587 33.709 19.392 33.453 19.84C33.2183 20.288 32.877 20.64 32.429 20.896C32.0023 21.1307 31.4903 21.248 30.893 21.248C30.0397 21.248 29.421 20.992 29.037 20.48C28.653 19.9467 28.461 19.2 28.461 18.24ZM40.16 9.28V12.768H49.248V9.28H40.16ZM42.688 4.16V24H46.688V4.16H42.688ZM50.4622 16.64C50.4622 18.1547 50.8142 19.4987 51.5182 20.672C52.2436 21.824 53.2143 22.72 54.4303 23.36C55.6676 24 57.0649 24.32 58.6223 24.32C60.1796 24.32 61.5663 24 62.7823 23.36C64.0196 22.72 64.9903 21.824 65.6943 20.672C66.4196 19.4987 66.7823 18.1547 66.7823 16.64C66.7823 15.104 66.4196 13.76 65.6943 12.608C64.9903 11.456 64.0196 10.56 62.7823 9.92C61.5663 9.28 60.1796 8.96 58.6223 8.96C57.0649 8.96 55.6676 9.28 54.4303 9.92C53.2143 10.56 52.2436 11.456 51.5182 12.608C50.8142 13.76 50.4622 15.104 50.4622 16.64ZM54.6863 16.64C54.6863 15.808 54.8569 15.072 55.1983 14.432C55.5609 13.792 56.0409 13.3013 56.6383 12.96C57.2356 12.6187 57.8969 12.448 58.6223 12.448C59.3476 12.448 60.0089 12.6187 60.6063 12.96C61.2036 13.3013 61.6729 13.792 62.0143 14.432C62.3769 15.072 62.5583 15.808 62.5583 16.64C62.5583 17.472 62.3769 18.208 62.0143 18.848C61.6729 19.4667 61.2036 19.9573 60.6063 20.32C60.0089 20.6613 59.3476 20.832 58.6223 20.832C57.8969 20.832 57.2356 20.6613 56.6383 20.32C56.0409 19.9573 55.5609 19.4667 55.1983 18.848C54.8569 18.208 54.6863 17.472 54.6863 16.64ZM83.5495 12.8C83.5495 11.3067 83.8802 10.016 84.5415 8.928C85.2242 7.84 86.1095 7.008 87.1975 6.432C88.2855 5.83467 89.4695 5.536 90.7495 5.536C91.8162 5.536 92.7655 5.67467 93.5975 5.952C94.4295 6.22933 95.1762 6.60267 95.8375 7.072C96.5202 7.54133 97.1068 8.05333 97.5975 8.608V3.456C96.6802 2.73067 95.6775 2.16533 94.5895 1.76C93.5228 1.35467 92.1682 1.152 90.5255 1.152C88.8188 1.152 87.2295 1.42933 85.7575 1.984C84.3068 2.53867 83.0375 3.33867 81.9495 4.384C80.8828 5.42933 80.0508 6.66667 79.4535 8.096C78.8775 9.504 78.5895 11.072 78.5895 12.8C78.5895 14.528 78.8775 16.1067 79.4535 17.536C80.0508 18.944 80.8828 20.1707 81.9495 21.216C83.0375 22.2613 84.3068 23.0613 85.7575 23.616C87.2295 24.1707 88.8188 24.448 90.5255 24.448C92.1682 24.448 93.5228 24.2453 94.5895 23.84C95.6775 23.4347 96.6802 22.8693 97.5975 22.144V16.992C97.1068 17.5467 96.5202 18.0587 95.8375 18.528C95.1762 18.9973 94.4295 19.3707 93.5975 19.648C92.7655 19.9253 91.8162 20.064 90.7495 20.064C89.4695 20.064 88.2855 19.776 87.1975 19.2C86.1095 18.6027 85.2242 17.76 84.5415 16.672C83.8802 15.5627 83.5495 14.272 83.5495 12.8ZM105.831 12.8C105.831 11.3067 106.161 10.016 106.823 8.928C107.505 7.84 108.391 7.008 109.479 6.432C110.567 5.83467 111.751 5.536 113.031 5.536C114.097 5.536 115.047 5.67467 115.879 5.952C116.711 6.22933 117.457 6.60267 118.119 7.072C118.801 7.54133 119.388 8.05333 119.879 8.608V3.456C118.961 2.73067 117.959 2.16533 116.871 1.76C115.804 1.35467 114.449 1.152 112.807 1.152C111.1 1.152 109.511 1.42933 108.039 1.984C106.588 2.53867 105.319 3.33867 104.231 4.384C103.164 5.42933 102.332 6.66667 101.735 8.096C101.159 9.504 100.871 11.072 100.871 12.8C100.871 14.528 101.159 16.1067 101.735 17.536C102.332 18.944 103.164 20.1707 104.231 21.216C105.319 22.2613 106.588 23.0613 108.039 23.616C109.511 24.1707 111.1 24.448 112.807 24.448C114.449 24.448 115.804 24.2453 116.871 23.84C117.959 23.4347 118.961 22.8693 119.879 22.144V16.992C119.388 17.5467 118.801 18.0587 118.119 18.528C117.457 18.9973 116.711 19.3707 115.879 19.648C115.047 19.9253 114.097 20.064 113.031 20.064C111.751 20.064 110.567 19.776 109.479 19.2C108.391 18.6027 107.505 17.76 106.823 16.672C106.161 15.5627 105.831 14.272 105.831 12.8Z" fill="white"/>
<path d="M5.536 18.912H17.376L16.832 15.296H6.08L5.536 18.912ZM11.392 8.864L14.752 16.64L14.688 17.792L17.568 24H22.752L11.392 0.287998L0.032 24H5.184L8.128 17.6L8.032 16.576L11.392 8.864ZM28.461 18.24V9.28H24.173V18.688C24.173 20.4373 24.5997 21.8133 25.453 22.816C26.3277 23.8187 27.6397 24.32 29.389 24.32C30.4343 24.32 31.3197 24.1067 32.045 23.68C32.7703 23.232 33.3677 22.592 33.837 21.76V24H37.965V9.28H33.837V18.24C33.837 18.8587 33.709 19.392 33.453 19.84C33.2183 20.288 32.877 20.64 32.429 20.896C32.0023 21.1307 31.4903 21.248 30.893 21.248C30.0397 21.248 29.421 20.992 29.037 20.48C28.653 19.9467 28.461 19.2 28.461 18.24ZM40.16 9.28V12.768H49.248V9.28H40.16ZM42.688 4.16V24H46.688V4.16H42.688ZM50.4622 16.64C50.4622 18.1547 50.8142 19.4987 51.5182 20.672C52.2436 21.824 53.2143 22.72 54.4303 23.36C55.6676 24 57.0649 24.32 58.6223 24.32C60.1796 24.32 61.5663 24 62.7823 23.36C64.0196 22.72 64.9903 21.824 65.6943 20.672C66.4196 19.4987 66.7823 18.1547 66.7823 16.64C66.7823 15.104 66.4196 13.76 65.6943 12.608C64.9903 11.456 64.0196 10.56 62.7823 9.92C61.5663 9.28 60.1796 8.96 58.6223 8.96C57.0649 8.96 55.6676 9.28 54.4303 9.92C53.2143 10.56 52.2436 11.456 51.5182 12.608C50.8142 13.76 50.4622 15.104 50.4622 16.64ZM54.6863 16.64C54.6863 15.808 54.8569 15.072 55.1983 14.432C55.5609 13.792 56.0409 13.3013 56.6383 12.96C57.2356 12.6187 57.8969 12.448 58.6223 12.448C59.3476 12.448 60.0089 12.6187 60.6063 12.96C61.2036 13.3013 61.6729 13.792 62.0143 14.432C62.3769 15.072 62.5583 15.808 62.5583 16.64C62.5583 17.472 62.3769 18.208 62.0143 18.848C61.6729 19.4667 61.2036 19.9573 60.6063 20.32C60.0089 20.6613 59.3476 20.832 58.6223 20.832C57.8969 20.832 57.2356 20.6613 56.6383 20.32C56.0409 19.9573 55.5609 19.4667 55.1983 18.848C54.8569 18.208 54.6863 17.472 54.6863 16.64ZM83.5495 12.8C83.5495 11.3067 83.8802 10.016 84.5415 8.928C85.2242 7.84 86.1095 7.008 87.1975 6.432C88.2855 5.83467 89.4695 5.536 90.7495 5.536C91.8162 5.536 92.7655 5.67467 93.5975 5.952C94.4295 6.22933 95.1762 6.60267 95.8375 7.072C96.5202 7.54133 97.1068 8.05333 97.5975 8.608V3.456C96.6802 2.73067 95.6775 2.16533 94.5895 1.76C93.5228 1.35467 92.1682 1.152 90.5255 1.152C88.8188 1.152 87.2295 1.42933 85.7575 1.984C84.3068 2.53867 83.0375 3.33867 81.9495 4.384C80.8828 5.42933 80.0508 6.66667 79.4535 8.096C78.8775 9.504 78.5895 11.072 78.5895 12.8C78.5895 14.528 78.8775 16.1067 79.4535 17.536C80.0508 18.944 80.8828 20.1707 81.9495 21.216C83.0375 22.2613 84.3068 23.0613 85.7575 23.616C87.2295 24.1707 88.8188 24.448 90.5255 24.448C92.1682 24.448 93.5228 24.2453 94.5895 23.84C95.6775 23.4347 96.6802 22.8693 97.5975 22.144V16.992C97.1068 17.5467 96.5202 18.0587 95.8375 18.528C95.1762 18.9973 94.4295 19.3707 93.5975 19.648C92.7655 19.9253 91.8162 20.064 90.7495 20.064C89.4695 20.064 88.2855 19.776 87.1975 19.2C86.1095 18.6027 85.2242 17.76 84.5415 16.672C83.8802 15.5627 83.5495 14.272 83.5495 12.8ZM105.831 12.8C105.831 11.3067 106.161 10.016 106.823 8.928C107.505 7.84 108.391 7.008 109.479 6.432C110.567 5.83467 111.751 5.536 113.031 5.536C114.097 5.536 115.047 5.67467 115.879 5.952C116.711 6.22933 117.457 6.60267 118.119 7.072C118.801 7.54133 119.388 8.05333 119.879 8.608V3.456C118.961 2.73067 117.959 2.16533 116.871 1.76C115.804 1.35467 114.449 1.152 112.807 1.152C111.1 1.152 109.511 1.42933 108.039 1.984C106.588 2.53867 105.319 3.33867 104.231 4.384C103.164 5.42933 102.332 6.66667 101.735 8.096C101.159 9.504 100.871 11.072 100.871 12.8C100.871 14.528 101.159 16.1067 101.735 17.536C102.332 18.944 103.164 20.1707 104.231 21.216C105.319 22.2613 106.588 23.0613 108.039 23.616C109.511 24.1707 111.1 24.448 112.807 24.448C114.449 24.448 115.804 24.2453 116.871 23.84C117.959 23.4347 118.961 22.8693 119.879 22.144V16.992C119.388 17.5467 118.801 18.0587 118.119 18.528C117.457 18.9973 116.711 19.3707 115.879 19.648C115.047 19.9253 114.097 20.064 113.031 20.064C111.751 20.064 110.567 19.776 109.479 19.2C108.391 18.6027 107.505 17.76 106.823 16.672C106.161 15.5627 105.831 14.272 105.831 12.8Z" fill="url(#paint0_linear_1_54)"/>
<defs>
<linearGradient id="paint0_linear_1_54" x1="-5.52097e-07" y1="14.1714" x2="121.015" y2="3.25225" gradientUnits="userSpaceOnUse">
<stop stop-color="#7CEBD6"/>
<stop offset="0.460599" stop-color="#F2D9B7"/>
<stop offset="0.999996" stop-color="#C79DF6"/>
</linearGradient>
</defs>
</svg>
