<svg width="28" height="28" viewBox="0 0 28 28" fill="none" xmlns="http://www.w3.org/2000/svg">
<path d="M11.513 13.093L13.8845 8.96187C14.0614 8.65306 13.9545 8.2561 13.6457 8.07639L11.9583 7.11128C11.6506 6.93271 11.252 7.04019 11.0751 7.34901L8.48917 11.8521L5.64049 16.813L3.2627 20.9549C3.08412 21.2637 3.19275 21.6601 3.50156 21.837L5.18779 22.8066C5.4966 22.9841 5.8947 22.8766 6.07328 22.5689L9.3775 16.813L11.513 13.093Z" fill="white"/>
<path d="M27.4137 11.8525H21.7209C22.3908 13.1077 23.0118 14.2895 23.4492 15.1249C23.7512 15.7027 23.9912 16.1588 24.0759 16.3124C24.1646 16.4745 24.2283 16.6422 24.2704 16.8134H27.4137C27.7367 16.8134 28 16.5512 28 16.2282V12.4383C28 12.1147 27.7367 11.8525 27.4137 11.8525Z" fill="white"/>
<path d="M13.5757 11.8525L10.7276 16.8134H18.4564C17.8957 15.7061 17.1524 14.1223 16.1537 11.8525H13.5757Z" fill="white"/>
<path d="M7.13848 11.8525H0.585774C0.262177 11.8525 0 12.1147 0 12.4377V16.2276C0 16.5507 0.262177 16.8129 0.585774 16.8129H4.29037L7.13848 11.8525Z" fill="white"/>
<path d="M4.6373 23.5488L2.95107 22.5814C2.64226 22.404 2.35676 22.549 2.31581 22.9022L2.02407 25.4415C1.98369 25.7946 2.19127 25.9215 2.48586 25.7213L4.66403 24.2364C4.95862 24.0373 4.94611 23.7268 4.6373 23.5488Z" fill="white"/>
<path d="M23.0494 16.8766C23.0391 16.8601 23.0272 16.8368 23.0147 16.8134C22.8583 16.5234 22.4647 15.7693 21.9495 14.7905C21.9438 14.7774 21.9375 14.7661 21.9307 14.753C21.892 14.6774 21.8517 14.6017 21.8107 14.5244C21.7806 14.4686 21.7516 14.4123 21.7209 14.3555C21.6964 14.3066 21.6697 14.2576 21.6441 14.2076C21.5986 14.1212 21.552 14.0341 21.5053 13.9454C21.4911 13.9176 21.4763 13.8897 21.4621 13.8624C21.4098 13.7623 21.3563 13.6622 21.3023 13.5604C21.2869 13.5314 21.2721 13.5024 21.2557 13.4728C20.0682 11.227 18.5764 8.46189 17.6557 7.0077C16.044 4.45986 13.8925 0.213287 13.2914 0.515274C12.4503 0.933846 15.0544 6.32467 15.916 8.35043C16.7782 10.3756 20.1427 18.1374 20.8166 18.4764C21.4922 18.8142 21.7527 18.6265 22.2031 18.44C22.6541 18.2517 23.4617 17.6284 23.0494 16.8766Z" fill="white"/>
<path d="M24.9722 20.8762L24.1691 19.3344C23.9872 18.9858 23.5595 18.8436 23.2183 19.0177L22.2497 19.5164C21.9085 19.6933 21.801 20.1062 22.0109 20.4394L23.0272 22.0444C23.237 22.3753 23.6801 22.484 24.0093 22.2855L24.7003 21.8703C25.0307 21.6724 25.153 21.2248 24.9722 20.8762Z" fill="white"/>
<path d="M24.7242 23.1079C24.4712 23.3502 23.87 23.8768 24.5974 24.8982C25.3225 25.9224 26.9434 25.9679 27.1578 26.6475C27.1578 26.6475 27.6668 21.4484 24.7242 23.1079Z" fill="white"/>
</svg>
