<svg width="368" height="104" viewBox="0 0 368 104" fill="none" xmlns="http://www.w3.org/2000/svg">
<path d="M22 2H346V102H22V2Z" stroke="#F2D9B7" stroke-width="4"/>
<g opacity="0.08">
<mask id="mask0_1_66" style="mask-type:alpha" maskUnits="userSpaceOnUse" x="20" y="0" width="328" height="104">
<path d="M20 0H348V104H20V0Z" fill="url(#paint0_linear_1_66)"/>
</mask>
<g mask="url(#mask0_1_66)">
<path d="M452 0L308 104" stroke="url(#paint1_linear_1_66)" stroke-width="8"/>
<path d="M420 0L276 104" stroke="url(#paint2_linear_1_66)" stroke-width="8"/>
<path d="M388 0L244 104" stroke="url(#paint3_linear_1_66)" stroke-width="8"/>
<path d="M356 0L212 104" stroke="url(#paint4_linear_1_66)" stroke-width="8"/>
<path d="M324 0L180 104" stroke="url(#paint5_linear_1_66)" stroke-width="8"/>
<path d="M292 0L148 104" stroke="url(#paint6_linear_1_66)" stroke-width="8"/>
<path d="M260 0L116 104" stroke="url(#paint7_linear_1_66)" stroke-width="8"/>
<path d="M228 0L84 104" stroke="url(#paint8_linear_1_66)" stroke-width="8"/>
<path d="M196 0L52 104" stroke="url(#paint9_linear_1_66)" stroke-width="8"/>
<path d="M164 0L20 104" stroke="url(#paint10_linear_1_66)" stroke-width="8"/>
<path d="M132 0L-12 104" stroke="url(#paint11_linear_1_66)" stroke-width="8"/>
<path d="M100 0L-44 104" stroke="url(#paint12_linear_1_66)" stroke-width="8"/>
<path d="M68 0L-76 104" stroke="url(#paint13_linear_1_66)" stroke-width="8"/>
</g>
</g>
<path d="M56.264 65.552L51.728 71.384C52.976 72.584 54.368 73.712 55.904 74.768C57.488 75.776 59.24 76.592 61.16 77.216C63.128 77.84 65.288 78.152 67.64 78.152C71.432 78.152 74.408 77.24 76.568 75.416C78.728 73.544 79.808 70.952 79.808 67.64C79.808 65.624 79.352 63.992 78.44 62.744C77.528 61.496 76.304 60.464 74.768 59.648C73.28 58.784 71.648 58.016 69.872 57.344C68.432 56.72 67.136 56.192 65.984 55.76C64.88 55.328 64.016 54.848 63.392 54.32C62.816 53.744 62.528 53.096 62.528 52.376C62.528 51.56 62.816 50.96 63.392 50.576C64.016 50.144 64.856 49.928 65.912 49.928C67.496 49.928 69.104 50.336 70.736 51.152C72.416 51.968 73.856 53.024 75.056 54.32L79.16 48.56C78.104 47.504 76.88 46.592 75.488 45.824C74.096 45.008 72.584 44.36 70.952 43.88C69.32 43.4 67.568 43.16 65.696 43.16C63.488 43.16 61.472 43.52 59.648 44.24C57.872 44.912 56.456 45.944 55.4 47.336C54.344 48.68 53.816 50.336 53.816 52.304C53.816 54.368 54.272 56.072 55.184 57.416C56.144 58.712 57.344 59.768 58.784 60.584C60.224 61.352 61.712 62.024 63.248 62.6C64.88 63.128 66.224 63.632 67.28 64.112C68.336 64.592 69.128 65.144 69.656 65.768C70.232 66.344 70.52 67.064 70.52 67.928C70.52 68.888 70.184 69.656 69.512 70.232C68.84 70.76 67.88 71.024 66.632 71.024C65.672 71.024 64.64 70.832 63.536 70.448C62.48 70.064 61.352 69.488 60.152 68.72C58.952 67.904 57.656 66.848 56.264 65.552ZM95.8966 64.04V43.88H86.2486V65.048C86.2486 68.984 87.2086 72.08 89.1286 74.336C91.0966 76.592 94.0486 77.72 97.9846 77.72C100.337 77.72 102.329 77.24 103.961 76.28C105.593 75.272 106.937 73.832 107.993 71.96V77H117.281V43.88H107.993V64.04C107.993 65.432 107.705 66.632 107.129 67.64C106.601 68.648 105.833 69.44 104.825 70.016C103.865 70.544 102.713 70.808 101.369 70.808C99.4486 70.808 98.0566 70.232 97.1926 69.08C96.3286 67.88 95.8966 66.2 95.8966 64.04ZM135.611 20.84H126.251V77H135.611V20.84ZM162.827 60.44C162.827 56.744 162.083 53.624 160.595 51.08C159.107 48.488 157.139 46.52 154.691 45.176C152.291 43.832 149.699 43.16 146.915 43.16C144.179 43.16 141.731 43.856 139.571 45.248C137.459 46.64 135.779 48.632 134.531 51.224C133.283 53.768 132.659 56.84 132.659 60.44C132.659 63.992 133.283 67.064 134.531 69.656C135.779 72.248 137.459 74.24 139.571 75.632C141.731 77.024 144.179 77.72 146.915 77.72C149.699 77.72 152.291 77.048 154.691 75.704C157.139 74.36 159.107 72.392 160.595 69.8C162.083 67.208 162.827 64.088 162.827 60.44ZM153.179 60.44C153.179 62.408 152.771 64.112 151.955 65.552C151.139 66.992 150.035 68.096 148.643 68.864C147.299 69.632 145.811 70.016 144.179 70.016C142.787 70.016 141.419 69.656 140.075 68.936C138.779 68.168 137.699 67.064 136.835 65.624C136.019 64.184 135.611 62.456 135.611 60.44C135.611 58.424 136.019 56.696 136.835 55.256C137.699 53.816 138.779 52.736 140.075 52.016C141.419 51.248 142.787 50.864 144.179 50.864C145.811 50.864 147.299 51.248 148.643 52.016C150.035 52.784 151.139 53.888 151.955 55.328C152.771 56.768 153.179 58.472 153.179 60.44ZM165.532 43.88V51.728H185.98V43.88H165.532ZM171.22 32.36V77H180.22V32.36H171.22ZM190.512 31.064C190.512 32.552 191.064 33.8 192.168 34.808C193.272 35.816 194.592 36.32 196.128 36.32C197.664 36.32 198.96 35.816 200.016 34.808C201.12 33.8 201.672 32.552 201.672 31.064C201.672 29.528 201.12 28.28 200.016 27.32C198.96 26.312 197.664 25.808 196.128 25.808C194.592 25.808 193.272 26.312 192.168 27.32C191.064 28.28 190.512 29.528 190.512 31.064ZM191.52 43.88V77H200.592V43.88H191.52ZM206.243 43.88V51.728H226.691V43.88H206.243ZM211.931 32.36V77H220.931V32.36H211.931ZM231.655 20.84V77H241.015V20.84H231.655ZM265.841 77.72C269.825 77.72 273.233 76.952 276.065 75.416C278.945 73.832 281.249 71.48 282.977 68.36L274.841 65.84C273.881 67.424 272.657 68.624 271.169 69.44C269.729 70.208 267.977 70.592 265.913 70.592C264.089 70.592 262.529 70.184 261.233 69.368C259.937 68.552 258.953 67.376 258.281 65.84C257.657 64.304 257.345 62.432 257.345 60.224C257.393 57.92 257.729 56 258.353 54.464C259.025 52.88 259.961 51.704 261.161 50.936C262.409 50.12 263.945 49.712 265.769 49.712C267.257 49.712 268.553 50.048 269.657 50.72C270.761 51.392 271.601 52.304 272.177 53.456C272.801 54.608 273.113 56 273.113 57.632C273.113 57.968 273.017 58.4 272.825 58.928C272.681 59.408 272.513 59.792 272.321 60.08L274.841 56.768H253.313V62.528H282.977C283.025 62.24 283.049 61.856 283.049 61.376C283.097 60.896 283.121 60.44 283.121 60.008C283.121 56.456 282.449 53.432 281.105 50.936C279.761 48.392 277.793 46.472 275.201 45.176C272.657 43.832 269.561 43.16 265.913 43.16C262.265 43.16 259.097 43.88 256.409 45.32C253.721 46.712 251.633 48.704 250.145 51.296C248.705 53.84 247.985 56.888 247.985 60.44C247.985 63.944 248.705 66.992 250.145 69.584C251.633 72.128 253.721 74.12 256.409 75.56C259.097 77 262.241 77.72 265.841 77.72ZM291.811 65.552L287.275 71.384C288.523 72.584 289.915 73.712 291.451 74.768C293.035 75.776 294.787 76.592 296.707 77.216C298.675 77.84 300.835 78.152 303.187 78.152C306.979 78.152 309.955 77.24 312.115 75.416C314.275 73.544 315.355 70.952 315.355 67.64C315.355 65.624 314.899 63.992 313.987 62.744C313.075 61.496 311.851 60.464 310.315 59.648C308.827 58.784 307.195 58.016 305.419 57.344C303.979 56.72 302.683 56.192 301.531 55.76C300.427 55.328 299.563 54.848 298.939 54.32C298.363 53.744 298.075 53.096 298.075 52.376C298.075 51.56 298.363 50.96 298.939 50.576C299.563 50.144 300.403 49.928 301.459 49.928C303.043 49.928 304.651 50.336 306.283 51.152C307.963 51.968 309.403 53.024 310.603 54.32L314.707 48.56C313.651 47.504 312.427 46.592 311.035 45.824C309.643 45.008 308.131 44.36 306.499 43.88C304.867 43.4 303.115 43.16 301.243 43.16C299.035 43.16 297.019 43.52 295.195 44.24C293.419 44.912 292.003 45.944 290.947 47.336C289.891 48.68 289.363 50.336 289.363 52.304C289.363 54.368 289.819 56.072 290.731 57.416C291.691 58.712 292.891 59.768 294.331 60.584C295.771 61.352 297.259 62.024 298.795 62.6C300.427 63.128 301.771 63.632 302.827 64.112C303.883 64.592 304.675 65.144 305.203 65.768C305.779 66.344 306.067 67.064 306.067 67.928C306.067 68.888 305.731 69.656 305.059 70.232C304.387 70.76 303.427 71.024 302.179 71.024C301.219 71.024 300.187 70.832 299.083 70.448C298.027 70.064 296.899 69.488 295.699 68.72C294.499 67.904 293.203 66.848 291.811 65.552Z" fill="#F2D9B7"/>
<path d="M368 14C368 6.26801 361.732 0 354 0H336V4C336 4 344 4 344 12V92C344 100 336 100 336 100V104H354C361.732 104 368 97.732 368 90V14Z" fill="#F2D9B7"/>
<path d="M356 68V36" stroke="#373431" stroke-width="4" stroke-linecap="round"/>
<path d="M0 14C0 6.26801 6.26801 0 14 0H32V4C32 4 24 4 24 12V92C24 100 32 100 32 100V104H14C6.26801 104 0 97.732 0 90V14Z" fill="#F2D9B7"/>
<path d="M12 68V36" stroke="#373431" stroke-width="4" stroke-linecap="round"/>
<defs>
<linearGradient id="paint0_linear_1_66" x1="348" y1="-2.17844e-05" x2="221.5" y2="166" gradientUnits="userSpaceOnUse">
<stop stop-color="#D9D9D9"/>
<stop offset="1" stop-color="#D9D9D9" stop-opacity="0"/>
</linearGradient>
<linearGradient id="paint1_linear_1_66" x1="380" y1="1.90735e-06" x2="380" y2="104" gradientUnits="userSpaceOnUse">
<stop stop-color="#F2D9B7"/>
<stop offset="1" stop-color="#F2D9B7" stop-opacity="0"/>
</linearGradient>
<linearGradient id="paint2_linear_1_66" x1="348" y1="1.90735e-06" x2="348" y2="104" gradientUnits="userSpaceOnUse">
<stop stop-color="#F2D9B7"/>
<stop offset="1" stop-color="#F2D9B7" stop-opacity="0"/>
</linearGradient>
<linearGradient id="paint3_linear_1_66" x1="316" y1="1.90735e-06" x2="316" y2="104" gradientUnits="userSpaceOnUse">
<stop stop-color="#F2D9B7"/>
<stop offset="1" stop-color="#F2D9B7" stop-opacity="0"/>
</linearGradient>
<linearGradient id="paint4_linear_1_66" x1="284" y1="1.90735e-06" x2="284" y2="104" gradientUnits="userSpaceOnUse">
<stop stop-color="#F2D9B7"/>
<stop offset="1" stop-color="#F2D9B7" stop-opacity="0"/>
</linearGradient>
<linearGradient id="paint5_linear_1_66" x1="252" y1="1.90735e-06" x2="252" y2="104" gradientUnits="userSpaceOnUse">
<stop stop-color="#F2D9B7"/>
<stop offset="1" stop-color="#F2D9B7" stop-opacity="0"/>
</linearGradient>
<linearGradient id="paint6_linear_1_66" x1="220" y1="1.90735e-06" x2="220" y2="104" gradientUnits="userSpaceOnUse">
<stop stop-color="#F2D9B7"/>
<stop offset="1" stop-color="#F2D9B7" stop-opacity="0"/>
</linearGradient>
<linearGradient id="paint7_linear_1_66" x1="188" y1="1.90735e-06" x2="188" y2="104" gradientUnits="userSpaceOnUse">
<stop stop-color="#F2D9B7"/>
<stop offset="1" stop-color="#F2D9B7" stop-opacity="0"/>
</linearGradient>
<linearGradient id="paint8_linear_1_66" x1="156" y1="1.90735e-06" x2="156" y2="104" gradientUnits="userSpaceOnUse">
<stop stop-color="#F2D9B7"/>
<stop offset="1" stop-color="#F2D9B7" stop-opacity="0"/>
</linearGradient>
<linearGradient id="paint9_linear_1_66" x1="124" y1="1.90735e-06" x2="124" y2="104" gradientUnits="userSpaceOnUse">
<stop stop-color="#F2D9B7"/>
<stop offset="1" stop-color="#F2D9B7" stop-opacity="0"/>
</linearGradient>
<linearGradient id="paint10_linear_1_66" x1="92" y1="1.90735e-06" x2="92" y2="104" gradientUnits="userSpaceOnUse">
<stop stop-color="#F2D9B7"/>
<stop offset="1" stop-color="#F2D9B7" stop-opacity="0"/>
</linearGradient>
<linearGradient id="paint11_linear_1_66" x1="60" y1="1.90735e-06" x2="60" y2="104" gradientUnits="userSpaceOnUse">
<stop stop-color="#F2D9B7"/>
<stop offset="1" stop-color="#F2D9B7" stop-opacity="0"/>
</linearGradient>
<linearGradient id="paint12_linear_1_66" x1="28" y1="1.90735e-06" x2="28" y2="104" gradientUnits="userSpaceOnUse">
<stop stop-color="#F2D9B7"/>
<stop offset="1" stop-color="#F2D9B7" stop-opacity="0"/>
</linearGradient>
<linearGradient id="paint13_linear_1_66" x1="-3.99999" y1="1.90735e-06" x2="-4.00001" y2="104" gradientUnits="userSpaceOnUse">
<stop stop-color="#F2D9B7"/>
<stop offset="1" stop-color="#F2D9B7" stop-opacity="0"/>
</linearGradient>
</defs>
</svg>
